<svg width="370" height="24" viewBox="0 0 370 24" fill="none" xmlns="http://www.w3.org/2000/svg">
<path d="M0.52002 23.0774V0.0674438H19.24C20.03 0.0674438 20.75 0.267444 21.4 0.657444C22.05 1.05744 22.57 1.57744 22.97 2.22744C23.36 2.87744 23.56 3.59744 23.56 4.38744V10.7274C23.56 11.4974 23.36 12.2074 22.97 12.8674C22.57 13.5274 22.05 14.0474 21.4 14.4374C20.75 14.8274 20.03 15.0174 19.24 15.0174L4.36002 15.0474V23.0774H0.52002ZM4.94003 11.1474H19.08C19.25 11.1474 19.39 11.0974 19.51 10.9874C19.63 10.8774 19.69 10.7474 19.69 10.5674V4.48744C19.69 4.33744 19.63 4.20744 19.51 4.08744C19.39 3.96744 19.25 3.90744 19.08 3.90744H4.94003C4.79003 3.90744 4.66002 3.96744 4.54002 4.08744C4.42002 4.20744 4.36002 4.33744 4.36002 4.48744V10.5674C4.36002 10.7374 4.42002 10.8774 4.54002 10.9874C4.66002 11.0974 4.79003 11.1474 4.94003 11.1474Z" fill="#58C917"/>
<path d="M25.8301 23.0774V0.0674438H44.5501C45.3401 0.0674438 46.0601 0.267444 46.7101 0.657444C47.3601 1.05744 47.8801 1.57744 48.2801 2.22744C48.6701 2.87744 48.8701 3.59744 48.8701 4.38744V10.7274C48.8701 11.4974 48.6701 12.2074 48.2801 12.8674C47.8801 13.5274 47.3601 14.0474 46.7101 14.4374C46.0601 14.8274 45.3401 15.0174 44.5501 15.0174L29.6701 15.0474V23.0774H25.8301ZM30.2501 11.1474H44.3901C44.5601 11.1474 44.7001 11.0974 44.8201 10.9874C44.9401 10.8774 45.0001 10.7474 45.0001 10.5674V4.48744C45.0001 4.33744 44.9401 4.20744 44.8201 4.08744C44.7001 3.96744 44.5601 3.90744 44.3901 3.90744H30.2501C30.1001 3.90744 29.9701 3.96744 29.8501 4.08744C29.7301 4.20744 29.6701 4.33744 29.6701 4.48744V10.5674C29.6701 10.7374 29.7301 10.8774 29.8501 10.9874C29.9701 11.0974 30.1001 11.1474 30.2501 11.1474ZM44.4601 23.0774L37.3901 14.6274H42.4101L48.7801 22.1774V23.0774H44.4601Z" fill="#58C917"/>
<path d="M56.49 23.0775C55.7 23.0775 54.98 22.8875 54.31 22.4975C53.65 22.1175 53.13 21.5875 52.74 20.9275C52.36 20.2675 52.16 19.5375 52.16 18.7475V4.34746C52.16 3.55746 52.35 2.83746 52.74 2.16746C53.12 1.50746 53.65 0.987456 54.31 0.597456C54.97 0.217456 55.7 0.0174561 56.49 0.0174561H70.89C71.68 0.0174561 72.4 0.207456 73.05 0.597456C73.7 0.977456 74.22 1.50746 74.62 2.16746C75.02 2.82746 75.21 3.55746 75.21 4.34746V18.7475C75.21 19.5375 75.01 20.2575 74.62 20.9275C74.23 21.5975 73.7 22.1075 73.05 22.4975C72.4 22.8775 71.68 23.0775 70.89 23.0775H56.49ZM56.58 19.2075H70.72C70.89 19.2075 71.03 19.1575 71.15 19.0475C71.27 18.9375 71.33 18.7975 71.33 18.6275V4.48746C71.33 4.31746 71.27 4.17746 71.15 4.06746C71.03 3.95746 70.89 3.90746 70.72 3.90746H56.58C56.43 3.90746 56.3 3.95746 56.18 4.06746C56.06 4.17746 56 4.31746 56 4.48746V18.6275C56 18.7975 56.06 18.9375 56.18 19.0475C56.3 19.1575 56.43 19.2075 56.58 19.2075Z" fill="#58C917"/>
<path d="M82.92 23.0775C82.13 23.0775 81.41 22.8875 80.76 22.4975C80.11 22.1175 79.59 21.5875 79.21 20.9275C78.83 20.2675 78.63 19.5375 78.63 18.7475V17.2075H82.47V18.6175C82.47 18.7875 82.52 18.9275 82.63 19.0375C82.74 19.1475 82.88 19.1975 83.05 19.1975H97.19C97.36 19.1975 97.5 19.1475 97.62 19.0375C97.74 18.9275 97.8 18.7875 97.8 18.6175V14.0375C97.8 13.8875 97.74 13.7575 97.62 13.6575C97.5 13.5475 97.36 13.4975 97.19 13.4975H82.92C82.13 13.4975 81.41 13.2975 80.76 12.9075C80.11 12.5175 79.59 11.9875 79.21 11.3375C78.83 10.6875 78.63 9.96746 78.63 9.17746V4.34746C78.63 3.55746 78.82 2.83746 79.21 2.16746C79.59 1.50746 80.11 0.987456 80.76 0.597456C81.41 0.217456 82.13 0.0174561 82.92 0.0174561H97.35C98.14 0.0174561 98.86 0.207456 99.51 0.597456C100.16 0.977456 100.68 1.50746 101.08 2.16746C101.48 2.82746 101.67 3.55746 101.67 4.34746V5.88745H97.8V4.47746C97.8 4.30746 97.74 4.16746 97.62 4.05746C97.5 3.94746 97.36 3.89746 97.19 3.89746H83.05C82.88 3.89746 82.74 3.94746 82.63 4.05746C82.52 4.16746 82.47 4.30746 82.47 4.47746V9.05746C82.47 9.20746 82.52 9.33745 82.63 9.43745C82.74 9.53745 82.88 9.59745 83.05 9.59745H97.35C98.14 9.59745 98.86 9.79745 99.51 10.1875C100.16 10.5775 100.68 11.1075 101.08 11.7575C101.47 12.4075 101.67 13.1275 101.67 13.9175V18.7475C101.67 19.5375 101.47 20.2575 101.08 20.9275C100.69 21.5975 100.16 22.1075 99.51 22.4975C98.86 22.8775 98.14 23.0775 97.35 23.0775H82.92Z" fill="#022F58"/>
<path d="M113.58 23.0774V3.90744H103.98V0.0374451H127.02V3.90744H117.45V23.0774H113.58Z" fill="#022F58"/>
<path d="M129.48 4.35747C129.48 3.56747 129.67 2.84747 130.06 2.17747C130.44 1.51747 130.97 0.997466 131.63 0.607466C132.29 0.227466 133.02 0.0274658 133.81 0.0274658H148.21C149 0.0274658 149.72 0.217466 150.37 0.607466C151.02 0.987466 151.54 1.51747 151.94 2.17747C152.34 2.83747 152.53 3.56747 152.53 4.35747V23.0775H148.66V15.1775H133.33V23.0775H129.49V4.35747H129.48ZM148.65 11.3375V4.48746C148.65 4.31746 148.59 4.17746 148.47 4.06746C148.35 3.95746 148.21 3.90746 148.04 3.90746H133.9C133.75 3.90746 133.62 3.95746 133.5 4.06746C133.38 4.17746 133.32 4.31746 133.32 4.48746V11.3375H148.65Z" fill="#022F58"/>
<path d="M164.61 23.0774V3.90744H155.01V0.0374451H178.05V3.90744H168.48V23.0774H164.61Z" fill="#022F58"/>
<path d="M180.2 23.0774V0.0374451H184.01V23.0774H180.2Z" fill="#022F58"/>
<path d="M191.56 23.0775C190.77 23.0775 190.05 22.8875 189.38 22.4975C188.72 22.1175 188.2 21.5875 187.81 20.9275C187.43 20.2675 187.23 19.5375 187.23 18.7475V4.34746C187.23 3.55746 187.42 2.83746 187.81 2.16746C188.19 1.50746 188.72 0.987456 189.38 0.597456C190.04 0.217456 190.77 0.0174561 191.56 0.0174561H205.96C206.75 0.0174561 207.47 0.207456 208.12 0.597456C208.77 0.977456 209.29 1.50746 209.69 2.16746C210.09 2.82746 210.28 3.55746 210.28 4.34746V18.7475C210.28 19.5375 210.08 20.2575 209.69 20.9275C209.3 21.5975 208.77 22.1075 208.12 22.4975C207.47 22.8775 206.75 23.0775 205.96 23.0775H191.56ZM191.65 19.2075H205.79C205.96 19.2075 206.1 19.1575 206.22 19.0475C206.34 18.9375 206.4 18.7975 206.4 18.6275V4.48746C206.4 4.31746 206.34 4.17746 206.22 4.06746C206.1 3.95746 205.96 3.90746 205.79 3.90746H191.65C191.5 3.90746 191.37 3.95746 191.25 4.06746C191.13 4.17746 191.07 4.31746 191.07 4.48746V18.6275C191.07 18.7975 191.13 18.9375 191.25 19.0475C191.37 19.1575 191.5 19.2075 191.65 19.2075Z" fill="#022F58"/>
<path d="M213.8 23.0774V0.0374451H218.18L232.96 17.6374V0.0374451H236.83V23.0774H232.45L217.63 5.44744V23.0774H213.79H213.8Z" fill="#022F58"/>
<path d="M240.42 23.0774V0.0374451H244.8L259.58 17.6374V0.0374451H263.45V23.0774H259.07L244.25 5.44744V23.0774H240.41H240.42Z" fill="#022F58"/>
<path d="M267.04 23.0774V0.0374451H271.42L280.06 10.3374L288.67 0.0374451H293.09V23.0774H289.22V5.41744L280.07 16.3274L270.89 5.44744V23.0774H267.05H267.04Z" fill="#022F58"/>
<path d="M296.81 23.0774V0.0374451H317.96V3.90744H300.68V9.60744H314.6V13.5074H300.68V19.2074H317.96V23.0774H296.81Z" fill="#022F58"/>
<path d="M321.25 23.0774V0.0374451H325.63L340.41 17.6374V0.0374451H344.28V23.0774H339.9L325.08 5.44744V23.0774H321.24H321.25Z" fill="#022F58"/>
<path d="M356.32 23.0774V3.90744H346.72V0.0374451H369.76V3.90744H360.19V23.0774H356.32Z" fill="#022F58"/>
</svg>
