<svg width="452" height="70" viewBox="0 0 452 70" fill="none" xmlns="http://www.w3.org/2000/svg">
<path d="M59.75 29.3075C59.9 29.2175 60 29.0575 60 28.8775V17.5175C60 17.3375 59.91 17.1775 59.75 17.0875L40.08 5.7275L30.25 0.0675C30.1 -0.0225 29.91 -0.0225 29.76 0.0675L19.92 5.7475L0.25 17.0975C0.1 17.1875 0 17.3475 0 17.5275V28.8875C0 29.0675 0.09 29.2275 0.25 29.3175L9.35 34.5675L0.25 39.8175C0.1 39.9075 0 40.0675 0 40.2475V51.6075C0 51.7875 0.09 51.9475 0.25 52.0375L10.09 57.7175C10.17 57.7575 10.25 57.7875 10.34 57.7875C10.43 57.7875 10.51 57.7675 10.59 57.7175L19.69 52.4675V62.9775C19.69 63.1575 19.78 63.3175 19.94 63.4075L29.78 69.0875C29.78 69.0875 29.85 69.1175 29.88 69.1275C29.88 69.1275 29.89 69.1275 29.9 69.1275C29.94 69.1375 29.98 69.1475 30.03 69.1475C30.12 69.1475 30.2 69.1275 30.28 69.0775L40.12 63.3975C40.27 63.3075 40.37 63.1475 40.37 62.9675V52.4575L49.47 57.7075C49.55 57.7475 49.63 57.7775 49.72 57.7775C49.81 57.7775 49.89 57.7575 49.97 57.7075L59.81 52.0275C59.96 51.9375 60.06 51.7775 60.06 51.5975V40.2375C60.06 40.2375 60.06 40.1475 60.04 40.1075C60.01 39.9875 59.93 39.8775 59.81 39.8075L50.71 34.5575L59.81 29.3075H59.75ZM59.02 41.0975V51.3175L50.17 56.4275V46.2075L59.02 41.0975ZM39.34 62.6775L30.49 67.7875V46.7775L39.34 51.8875V62.6775ZM19.18 40.2375L10.33 45.3475L1.48 40.2375L10.33 35.1275L19.18 40.2375ZM10.82 46.1975L19.67 41.0875V51.3075L10.82 56.4175V46.1975ZM57.42 40.8775L49.67 45.3475L1.48 17.5275L19.67 7.0175V17.5175C19.67 17.5175 19.67 17.6075 19.69 17.6475C19.72 17.7675 19.8 17.8775 19.92 17.9475L29.76 23.6275C29.91 23.7175 30.1 23.7175 30.25 23.6275L40.09 17.9475C40.2 17.8775 40.29 17.7775 40.32 17.6475C40.33 17.6075 40.34 17.5675 40.34 17.5175V7.0175L58.54 17.5175L39.61 28.4475C39.46 28.5375 39.36 28.6975 39.36 28.8775C39.36 29.0575 39.45 29.2175 39.61 29.3075L58.54 40.2375L57.43 40.8775H57.42ZM39.34 17.2375L30.49 22.3475V12.1275L39.34 7.0175V17.2375ZM38.85 6.1675L30 11.2775L21.15 6.1675L30 1.0575L38.85 6.1675ZM59.02 18.3775V28.5975L49.68 33.9875L40.83 28.8775L59.03 18.3775H59.02Z" fill="#0C0C0C"/>
<path d="M21.15 6.1675L30 11.2775L38.85 6.1675L30 1.0575L21.15 6.1675Z" fill="#58C917"/>
<path d="M10.33 45.3475L19.18 40.2375L10.33 35.1275L1.47998 40.2375L10.33 45.3475Z" fill="#58C917"/>
<path d="M39.34 28.8775C39.34 28.6975 39.43 28.5375 39.59 28.4475L58.52 17.5175L40.32 7.01749V17.5175C40.32 17.5175 40.32 17.6075 40.3 17.6475C40.27 17.7675 40.19 17.8775 40.07 17.9475L30.23 23.6275C30.08 23.7175 29.89 23.7175 29.74 23.6275L19.9 17.9475C19.79 17.8775 19.7 17.7775 19.67 17.6475C19.66 17.6075 19.65 17.5675 19.65 17.5175V7.01749L1.47998 17.5275L49.68 45.3575L57.43 40.8875L58.54 40.2475L39.61 29.3175C39.46 29.2275 39.36 29.0675 39.36 28.8875L39.34 28.8775Z" fill="#58C917"/>
<path d="M59.0199 28.5975V18.3775L40.8199 28.8775L49.6699 33.9975L59.0199 28.5975Z" fill="#022F58"/>
<path d="M30.49 67.7775L39.34 62.6775V51.8775L30.49 46.7675V67.7775Z" fill="#022F58"/>
<path d="M19.6699 41.0975L10.8199 46.1975V56.4275L19.6699 51.3175V41.0975Z" fill="#022F58"/>
<path d="M30.49 22.3575L39.34 17.2375V7.01749L30.49 12.1275V22.3575Z" fill="#022F58"/>
<path d="M50.1599 56.4275L59.0199 51.3175V41.0975L50.1599 46.2075V56.4275Z" fill="#022F58"/>
<path d="M82.52 46.0774V23.0674H101.24C102.03 23.0674 102.75 23.2674 103.4 23.6574C104.05 24.0574 104.57 24.5774 104.97 25.2274C105.36 25.8774 105.56 26.5974 105.56 27.3874V33.7274C105.56 34.4974 105.36 35.2074 104.97 35.8674C104.57 36.5274 104.05 37.0474 103.4 37.4374C102.75 37.8274 102.03 38.0174 101.24 38.0174L86.36 38.0474V46.0774H82.52ZM86.94 34.1474H101.08C101.25 34.1474 101.39 34.0974 101.51 33.9874C101.63 33.8774 101.69 33.7474 101.69 33.5674V27.4874C101.69 27.3374 101.63 27.2074 101.51 27.0874C101.39 26.9674 101.25 26.9074 101.08 26.9074H86.94C86.79 26.9074 86.66 26.9674 86.54 27.0874C86.42 27.2074 86.36 27.3374 86.36 27.4874V33.5674C86.36 33.7374 86.42 33.8774 86.54 33.9874C86.66 34.0974 86.79 34.1474 86.94 34.1474Z" fill="#58C917"/>
<path d="M107.83 46.0774V23.0674H126.55C127.34 23.0674 128.06 23.2674 128.71 23.6574C129.36 24.0574 129.88 24.5774 130.28 25.2274C130.67 25.8774 130.87 26.5974 130.87 27.3874V33.7274C130.87 34.4974 130.67 35.2074 130.28 35.8674C129.88 36.5274 129.36 37.0474 128.71 37.4374C128.06 37.8274 127.34 38.0174 126.55 38.0174L111.67 38.0474V46.0774H107.83ZM112.25 34.1474H126.39C126.56 34.1474 126.7 34.0974 126.82 33.9874C126.94 33.8774 127 33.7474 127 33.5674V27.4874C127 27.3374 126.94 27.2074 126.82 27.0874C126.7 26.9674 126.56 26.9074 126.39 26.9074H112.25C112.1 26.9074 111.97 26.9674 111.85 27.0874C111.73 27.2074 111.67 27.3374 111.67 27.4874V33.5674C111.67 33.7374 111.73 33.8774 111.85 33.9874C111.97 34.0974 112.1 34.1474 112.25 34.1474ZM126.46 46.0774L119.39 37.6274H124.41L130.78 45.1774V46.0774H126.46Z" fill="#58C917"/>
<path d="M138.49 46.0775C137.7 46.0775 136.98 45.8875 136.31 45.4975C135.65 45.1175 135.13 44.5875 134.74 43.9275C134.36 43.2675 134.16 42.5375 134.16 41.7475V27.3475C134.16 26.5575 134.35 25.8375 134.74 25.1675C135.12 24.5075 135.65 23.9875 136.31 23.5975C136.97 23.2175 137.7 23.0175 138.49 23.0175H152.89C153.68 23.0175 154.4 23.2075 155.05 23.5975C155.7 23.9775 156.22 24.5075 156.62 25.1675C157.02 25.8275 157.21 26.5575 157.21 27.3475V41.7475C157.21 42.5375 157.01 43.2575 156.62 43.9275C156.23 44.5975 155.7 45.1075 155.05 45.4975C154.4 45.8775 153.68 46.0775 152.89 46.0775H138.49ZM138.58 42.2075H152.72C152.89 42.2075 153.03 42.1575 153.15 42.0475C153.27 41.9375 153.33 41.7975 153.33 41.6275V27.4875C153.33 27.3175 153.27 27.1775 153.15 27.0675C153.03 26.9575 152.89 26.9075 152.72 26.9075H138.58C138.43 26.9075 138.3 26.9575 138.18 27.0675C138.06 27.1775 138 27.3175 138 27.4875V41.6275C138 41.7975 138.06 41.9375 138.18 42.0475C138.3 42.1575 138.43 42.2075 138.58 42.2075Z" fill="#58C917"/>
<path d="M164.92 46.0775C164.13 46.0775 163.41 45.8875 162.76 45.4975C162.11 45.1175 161.59 44.5875 161.21 43.9275C160.83 43.2675 160.63 42.5375 160.63 41.7475V40.2075H164.47V41.6175C164.47 41.7875 164.52 41.9275 164.63 42.0375C164.74 42.1475 164.88 42.1975 165.05 42.1975H179.19C179.36 42.1975 179.5 42.1475 179.62 42.0375C179.74 41.9275 179.8 41.7875 179.8 41.6175V37.0375C179.8 36.8875 179.74 36.7575 179.62 36.6575C179.5 36.5475 179.36 36.4975 179.19 36.4975H164.92C164.13 36.4975 163.41 36.2975 162.76 35.9075C162.11 35.5175 161.59 34.9875 161.21 34.3375C160.83 33.6875 160.63 32.9675 160.63 32.1775V27.3475C160.63 26.5575 160.82 25.8375 161.21 25.1675C161.59 24.5075 162.11 23.9875 162.76 23.5975C163.41 23.2175 164.13 23.0175 164.92 23.0175H179.35C180.14 23.0175 180.86 23.2075 181.51 23.5975C182.16 23.9775 182.68 24.5075 183.08 25.1675C183.48 25.8275 183.67 26.5575 183.67 27.3475V28.8875H179.8V27.4775C179.8 27.3075 179.74 27.1675 179.62 27.0575C179.5 26.9475 179.36 26.8975 179.19 26.8975H165.05C164.88 26.8975 164.74 26.9475 164.63 27.0575C164.52 27.1675 164.47 27.3075 164.47 27.4775V32.0575C164.47 32.2075 164.52 32.3375 164.63 32.4375C164.74 32.5375 164.88 32.5975 165.05 32.5975H179.35C180.14 32.5975 180.86 32.7975 181.51 33.1875C182.16 33.5775 182.68 34.1075 183.08 34.7575C183.47 35.4075 183.67 36.1275 183.67 36.9175V41.7475C183.67 42.5375 183.47 43.2575 183.08 43.9275C182.69 44.5975 182.16 45.1075 181.51 45.4975C180.86 45.8775 180.14 46.0775 179.35 46.0775H164.92Z" fill="#022F58"/>
<path d="M195.58 46.0774V26.9074H185.98V23.0374H209.02V26.9074H199.45V46.0774H195.58Z" fill="#022F58"/>
<path d="M211.48 27.3575C211.48 26.5675 211.67 25.8475 212.06 25.1775C212.44 24.5175 212.97 23.9975 213.63 23.6075C214.29 23.2275 215.02 23.0275 215.81 23.0275H230.21C231 23.0275 231.72 23.2175 232.37 23.6075C233.02 23.9875 233.54 24.5175 233.94 25.1775C234.34 25.8375 234.53 26.5675 234.53 27.3575V46.0775H230.66V38.1775H215.33V46.0775H211.49V27.3575H211.48ZM230.65 34.3375V27.4875C230.65 27.3175 230.59 27.1775 230.47 27.0675C230.35 26.9575 230.21 26.9075 230.04 26.9075H215.9C215.75 26.9075 215.62 26.9575 215.5 27.0675C215.38 27.1775 215.32 27.3175 215.32 27.4875V34.3375H230.65Z" fill="#022F58"/>
<path d="M246.61 46.0774V26.9074H237.01V23.0374H260.05V26.9074H250.48V46.0774H246.61Z" fill="#022F58"/>
<path d="M262.2 46.0774V23.0374H266.01V46.0774H262.2Z" fill="#022F58"/>
<path d="M273.56 46.0775C272.77 46.0775 272.05 45.8875 271.38 45.4975C270.72 45.1175 270.2 44.5875 269.81 43.9275C269.43 43.2675 269.23 42.5375 269.23 41.7475V27.3475C269.23 26.5575 269.42 25.8375 269.81 25.1675C270.19 24.5075 270.72 23.9875 271.38 23.5975C272.04 23.2175 272.77 23.0175 273.56 23.0175H287.96C288.75 23.0175 289.47 23.2075 290.12 23.5975C290.77 23.9775 291.29 24.5075 291.69 25.1675C292.09 25.8275 292.28 26.5575 292.28 27.3475V41.7475C292.28 42.5375 292.08 43.2575 291.69 43.9275C291.3 44.5975 290.77 45.1075 290.12 45.4975C289.47 45.8775 288.75 46.0775 287.96 46.0775H273.56ZM273.65 42.2075H287.79C287.96 42.2075 288.1 42.1575 288.22 42.0475C288.34 41.9375 288.4 41.7975 288.4 41.6275V27.4875C288.4 27.3175 288.34 27.1775 288.22 27.0675C288.1 26.9575 287.96 26.9075 287.79 26.9075H273.65C273.5 26.9075 273.37 26.9575 273.25 27.0675C273.13 27.1775 273.07 27.3175 273.07 27.4875V41.6275C273.07 41.7975 273.13 41.9375 273.25 42.0475C273.37 42.1575 273.5 42.2075 273.65 42.2075Z" fill="#022F58"/>
<path d="M295.8 46.0774V23.0374H300.18L314.96 40.6374V23.0374H318.83V46.0774H314.45L299.63 28.4474V46.0774H295.79H295.8Z" fill="#022F58"/>
<path d="M322.42 46.0774V23.0374H326.8L341.58 40.6374V23.0374H345.45V46.0774H341.07L326.25 28.4474V46.0774H322.41H322.42Z" fill="#022F58"/>
<path d="M349.04 46.0774V23.0374H353.42L362.06 33.3374L370.67 23.0374H375.09V46.0774H371.22V28.4174L362.07 39.3274L352.89 28.4474V46.0774H349.05H349.04Z" fill="#022F58"/>
<path d="M378.81 46.0774V23.0374H399.96V26.9074H382.68V32.6074H396.6V36.5074H382.68V42.2074H399.96V46.0774H378.81Z" fill="#022F58"/>
<path d="M403.25 46.0774V23.0374H407.63L422.41 40.6374V23.0374H426.28V46.0774H421.9L407.08 28.4474V46.0774H403.24H403.25Z" fill="#022F58"/>
<path d="M438.32 46.0774V26.9074H428.72V23.0374H451.76V26.9074H442.19V46.0774H438.32Z" fill="#022F58"/>
</svg>
