<svg width="122" height="141" viewBox="0 0 122 141" fill="none" xmlns="http://www.w3.org/2000/svg">
<path d="M121.5 59.615C121.81 59.435 122 59.105 122 58.745V35.645C122 35.285 121.81 34.955 121.5 34.775L81.5 11.685L61.5 0.135C61.19 -0.045 60.81 -0.045 60.5 0.135L40.5 11.685L0.5 34.775C0.19 34.955 0 35.285 0 35.645V58.735C0 59.095 0.19 59.425 0.5 59.605L19 70.285L0.5 80.975C0.19 81.155 0 81.485 0 81.845V104.935C0 105.295 0.19 105.625 0.5 105.805L20.5 117.355C20.65 117.445 20.83 117.485 21 117.485C21.17 117.485 21.35 117.445 21.5 117.355L40 106.675V128.045C40 128.405 40.19 128.735 40.5 128.915L60.5 140.455C60.57 140.495 60.64 140.515 60.71 140.535C60.72 140.535 60.73 140.545 60.75 140.555C60.83 140.575 60.92 140.585 61.01 140.585C61.18 140.585 61.35 140.545 61.51 140.455L81.51 128.915C81.82 128.735 82.01 128.405 82.01 128.045V106.675L100.51 117.355C100.66 117.445 100.84 117.485 101.01 117.485C101.18 117.485 101.36 117.445 101.51 117.355L121.51 105.805C121.82 105.625 122.01 105.295 122.01 104.935V81.845C122.01 81.755 122 81.665 121.98 81.585C121.91 81.335 121.75 81.115 121.51 80.975L103.01 70.295L121.51 59.625L121.5 59.615ZM120 83.565V104.345L102 114.735V93.955L120 83.565ZM80 127.445L62 137.835V95.105L80 105.505V127.455V127.445ZM39 81.835L21 92.225L3 81.835L21 71.435L39 81.835ZM22 93.955L40 83.565V104.345L22 114.735V93.945V93.955ZM116.75 83.135L101 92.235L3 35.645L40 14.285V35.645C40 35.735 40.01 35.825 40.03 35.905C40.1 36.155 40.26 36.375 40.5 36.505L60.5 48.055C60.81 48.235 61.19 48.235 61.5 48.055L81.5 36.505C81.73 36.375 81.9 36.155 81.97 35.905C81.99 35.825 82 35.735 82 35.645V14.285L119 35.645L80.5 57.865C80.19 58.045 80 58.375 80 58.735C80 59.095 80.19 59.425 80.5 59.605L119 81.835L116.75 83.135ZM80 35.065L62 45.465V24.675L80 14.285V35.065ZM79 12.555L61 22.945L43 12.555L61 2.165L79 12.555ZM120 37.375V58.165L101 69.125L83 58.735L120 37.375Z" fill="#0C0C0C"/>
<path d="M43 12.555L61 22.945L79 12.555L61 2.16498L43 12.555Z" fill="#58C917"/>
<path d="M21 92.225L39 81.835L21 71.435L3 81.835L21 92.225Z" fill="#58C917"/>
<path d="M80 58.45C80 58.09 80.19 57.76 80.5 57.58L119 35.36L82 14V35.36C82 35.45 81.99 35.54 81.97 35.62C81.9 35.87 81.74 36.09 81.5 36.22L61.5 47.77C61.19 47.95 60.81 47.95 60.5 47.77L40.5 36.22C40.27 36.09 40.1 35.87 40.03 35.62C40.01 35.54 40 35.45 40 35.36V14L3 35.36L101 91.95L116.75 82.85L119 81.55L80.5 59.32C80.19 59.14 80 58.81 80 58.45Z" fill="#58C917"/>
<path d="M120 58.165V37.375L83 58.735L101 69.135L120 58.165Z" fill="#022F58"/>
<path d="M62 137.835L80 127.445V105.505L62 95.105V137.835Z" fill="#022F58"/>
<path d="M40 83.5649L22 93.9549V114.745L40 104.345V83.5649Z" fill="#022F58"/>
<path d="M62 45.465L80 35.065V14.285L62 24.675V45.465Z" fill="#022F58"/>
<path d="M102 114.745L120 104.345V83.5649L102 93.9649V114.745Z" fill="#022F58"/>
</svg>
